<svg xmlns="http://www.w3.org/2000/svg" width="1920" height="1080" viewBox="0 0 1920 1080">
<title>01 Sign in</title>
<g id="landscape-background">
<rect id="sky" x="0.0" y="0.0" width="1920.0" height="1080.0" fill="#E4EFE8"/>
<circle id="sun-glow" cx="1580.0" cy="250.0" r="150.0" fill="#F0A12B" fill-opacity="0.12"/>
<circle id="sun" cx="1580.0" cy="250.0" r="80.0" fill="#F0A12B"/>
<path id="far-hills" d="M0 700 C 420 610, 900 700, 1300 640 S 1760 600, 1920 630 L1920 1080 L0 1080 Z" fill="#9CC48A"/>
<path id="mid-field" d="M0 800 C 500 730, 1000 820, 1500 760 S 1820 740, 1920 760 L1920 1080 L0 1080 Z" fill="#5FA56F"/>
<path id="near-field" d="M0 900 C 600 850, 1200 930, 1920 870 L1920 1080 L0 1080 Z" fill="#2F8F5E"/>
<path id="crop-row-1" d="M0 930 C 600 886, 1200 960, 1920 880" fill="none" stroke="#1E6B47" stroke-width="3" stroke-linejoin="round" stroke-linecap="round" stroke-opacity="0.55"/>
<path id="crop-row-2" d="M0 956 C 600 912, 1200 986, 1920 906" fill="none" stroke="#1E6B47" stroke-width="3" stroke-linejoin="round" stroke-linecap="round" stroke-opacity="0.55"/>
<path id="crop-row-3" d="M0 982 C 600 938, 1200 1012, 1920 932" fill="none" stroke="#1E6B47" stroke-width="3" stroke-linejoin="round" stroke-linecap="round" stroke-opacity="0.55"/>
<path id="crop-row-4" d="M0 1008 C 600 964, 1200 1038, 1920 958" fill="none" stroke="#1E6B47" stroke-width="3" stroke-linejoin="round" stroke-linecap="round" stroke-opacity="0.55"/>
<path id="crop-row-5" d="M0 1034 C 600 990, 1200 1064, 1920 984" fill="none" stroke="#1E6B47" stroke-width="3" stroke-linejoin="round" stroke-linecap="round" stroke-opacity="0.55"/>
<path id="crop-row-6" d="M0 1060 C 600 1016, 1200 1090, 1920 1010" fill="none" stroke="#1E6B47" stroke-width="3" stroke-linejoin="round" stroke-linecap="round" stroke-opacity="0.55"/>
<rect id="post-0-0" x="236.0" y="772.0" width="4.0" height="22.0" fill="#27425F"/>
<path id="panel-0-0" d="M210 772 L218 736 L270 736 L262 772 Z" fill="#2E5B8F" stroke="#1F3A5C" stroke-width="1.5" stroke-linejoin="round" stroke-linecap="round"/>
<line x1="240.0" y1="737.0" x2="236.0" y2="771.0" stroke="#6B9BD1" stroke-width="1"/>
<rect id="post-0-1" x="298.0" y="775.0" width="4.0" height="22.0" fill="#27425F"/>
<path id="panel-0-1" d="M272 775 L280 739 L332 739 L324 775 Z" fill="#2E5B8F" stroke="#1F3A5C" stroke-width="1.5" stroke-linejoin="round" stroke-linecap="round"/>
<line x1="302.0" y1="740.0" x2="298.0" y2="774.0" stroke="#6B9BD1" stroke-width="1"/>
<rect id="post-0-2" x="360.0" y="772.0" width="4.0" height="22.0" fill="#27425F"/>
<path id="panel-0-2" d="M334 772 L342 736 L394 736 L386 772 Z" fill="#2E5B8F" stroke="#1F3A5C" stroke-width="1.5" stroke-linejoin="round" stroke-linecap="round"/>
<line x1="364.0" y1="737.0" x2="360.0" y2="771.0" stroke="#6B9BD1" stroke-width="1"/>
<rect id="post-0-3" x="422.0" y="775.0" width="4.0" height="22.0" fill="#27425F"/>
<path id="panel-0-3" d="M396 775 L404 739 L456 739 L448 775 Z" fill="#2E5B8F" stroke="#1F3A5C" stroke-width="1.5" stroke-linejoin="round" stroke-linecap="round"/>
<line x1="426.0" y1="740.0" x2="422.0" y2="774.0" stroke="#6B9BD1" stroke-width="1"/>
<rect id="post-0-4" x="484.0" y="772.0" width="4.0" height="22.0" fill="#27425F"/>
<path id="panel-0-4" d="M458 772 L466 736 L518 736 L510 772 Z" fill="#2E5B8F" stroke="#1F3A5C" stroke-width="1.5" stroke-linejoin="round" stroke-linecap="round"/>
<line x1="488.0" y1="737.0" x2="484.0" y2="771.0" stroke="#6B9BD1" stroke-width="1"/>
<rect id="post-0-5" x="546.0" y="775.0" width="4.0" height="22.0" fill="#27425F"/>
<path id="panel-0-5" d="M520 775 L528 739 L580 739 L572 775 Z" fill="#2E5B8F" stroke="#1F3A5C" stroke-width="1.5" stroke-linejoin="round" stroke-linecap="round"/>
<line x1="550.0" y1="740.0" x2="546.0" y2="774.0" stroke="#6B9BD1" stroke-width="1"/>
<rect id="post-1-0" x="1356.0" y="752.0" width="4.0" height="22.0" fill="#27425F"/>
<path id="panel-1-0" d="M1330 752 L1338 716 L1390 716 L1382 752 Z" fill="#2E5B8F" stroke="#1F3A5C" stroke-width="1.5" stroke-linejoin="round" stroke-linecap="round"/>
<line x1="1360.0" y1="717.0" x2="1356.0" y2="751.0" stroke="#6B9BD1" stroke-width="1"/>
<rect id="post-1-1" x="1418.0" y="755.0" width="4.0" height="22.0" fill="#27425F"/>
<path id="panel-1-1" d="M1392 755 L1400 719 L1452 719 L1444 755 Z" fill="#2E5B8F" stroke="#1F3A5C" stroke-width="1.5" stroke-linejoin="round" stroke-linecap="round"/>
<line x1="1422.0" y1="720.0" x2="1418.0" y2="754.0" stroke="#6B9BD1" stroke-width="1"/>
<rect id="post-1-2" x="1480.0" y="752.0" width="4.0" height="22.0" fill="#27425F"/>
<path id="panel-1-2" d="M1454 752 L1462 716 L1514 716 L1506 752 Z" fill="#2E5B8F" stroke="#1F3A5C" stroke-width="1.5" stroke-linejoin="round" stroke-linecap="round"/>
<line x1="1484.0" y1="717.0" x2="1480.0" y2="751.0" stroke="#6B9BD1" stroke-width="1"/>
<rect id="post-1-3" x="1542.0" y="755.0" width="4.0" height="22.0" fill="#27425F"/>
<path id="panel-1-3" d="M1516 755 L1524 719 L1576 719 L1568 755 Z" fill="#2E5B8F" stroke="#1F3A5C" stroke-width="1.5" stroke-linejoin="round" stroke-linecap="round"/>
<line x1="1546.0" y1="720.0" x2="1542.0" y2="754.0" stroke="#6B9BD1" stroke-width="1"/>
<rect id="post-1-4" x="1604.0" y="752.0" width="4.0" height="22.0" fill="#27425F"/>
<path id="panel-1-4" d="M1578 752 L1586 716 L1638 716 L1630 752 Z" fill="#2E5B8F" stroke="#1F3A5C" stroke-width="1.5" stroke-linejoin="round" stroke-linecap="round"/>
<line x1="1608.0" y1="717.0" x2="1604.0" y2="751.0" stroke="#6B9BD1" stroke-width="1"/>
<rect id="trunk" x="117.0" y="690.0" width="6.0" height="37.4" fill="#5A4632"/>
<circle id="tree" cx="120.0" cy="679.8" r="34.0" fill="#1E6B47"/>
<rect id="trunk-2" x="173.0" y="704.0" width="6.0" height="26.4" fill="#5A4632"/>
<circle id="tree-2" cx="176.0" cy="696.8" r="24.0" fill="#1E6B47"/>
<rect id="trunk-3" x="1787.0" y="650.0" width="6.0" height="41.8" fill="#5A4632"/>
<circle id="tree-3" cx="1790.0" cy="638.6" r="38.0" fill="#1E6B47"/>
<rect id="trunk-4" x="1727.0" y="670.0" width="6.0" height="28.6" fill="#5A4632"/>
<circle id="tree-4" cx="1730.0" cy="662.2" r="26.0" fill="#1E6B47"/>
<rect id="trunk-5" x="1037.0" y="690.0" width="6.0" height="24.2" fill="#5A4632"/>
<circle id="tree-5" cx="1040.0" cy="683.4" r="22.0" fill="#1E6B47"/>
</g>
<g id="top-bar">
<g id="logo-mark">
<rect x="48.0" y="32.0" width="40.0" height="40.0" rx="11.11111111111111" fill="#1E6B47"/>
<circle cx="73.6" cy="46.4" r="6.7" fill="#F0A12B"/>
<path d="M56.9 63.1 C56.9 50.9 65.8 46.4 76.9 46.4 C76.9 57.6 69.1 63.1 56.9 63.1 Z" fill="#FFFFFF"/>
<path d="M58.0 62.0 L70.2 52.0" fill="none" stroke="#1E6B47" stroke-width="1.777777777777778" stroke-linejoin="round" stroke-linecap="round"/>
</g>
<text id="P4FP-MEL" x="100.0" y="52.0" font-family="Segoe UI" font-size="18" font-weight="700" fill="#16211B">P4FP MEL</text>
<text id="SNV-Power-for-Food-Uganda" x="100.0" y="70.0" font-family="Segoe UI" font-size="12" font-weight="400" fill="#45524B">SNV · Power for Food Uganda</text>
<rect x="1734.9" y="32.0" width="137.1" height="40.0" rx="20" fill="#FFFFFF" fill-opacity="0.9"/>
<g id="icon-arrowleft" transform="translate(1750.9 43.0) scale(0.7500)">
<path d="M19 12H5" fill="none" stroke="#16211B" stroke-width="2.67" stroke-linecap="round" stroke-linejoin="round"/>
<path d="M12 19l-7-7 7-7" fill="none" stroke="#16211B" stroke-width="2.67" stroke-linecap="round" stroke-linejoin="round"/>
</g>
<text id="Back-to-home" x="1774.9" y="57.0" font-family="Segoe UI" font-size="14" font-weight="600" fill="#16211B">Back to home</text>
</g>
<text id="Protected-under-Uganda-s-Dat" x="687.4" y="1052.0" font-family="Segoe UI" font-size="12.5" font-weight="600" fill="#FFFFFF">Protected under Uganda's Data Protection and Privacy Act, 2019 · SNV owns all programme data</text>
<g id="sign-in-card">
<rect id="shadow" x="716.0" y="160.0" width="500.0" height="632.0" rx="20" fill="#000000" fill-opacity="0.12"/>
<rect x="710.0" y="150.0" width="500.0" height="632.0" rx="20" fill="#FFFFFF"/>
<text id="Welcome-back" x="754.0" y="220.0" font-family="Segoe UI" font-size="30" font-weight="700" fill="#16211B">Welcome back</text>
<text id="Sign-in-to-the-P4FP-MEL-plat" x="754.0" y="250.0" font-family="Segoe UI" font-size="15" font-weight="400" fill="#7A857F">Sign in to the P4FP MEL platform</text>
<g id="button-SNV-staff-continue-with-Microsoft">
<rect x="754.0" y="280.0" width="412.0" height="48.0" rx="8" fill="#FFFFFF" stroke="#E2E7E2" stroke-width="1"/>
<g id="icon-sparkle" transform="translate(837.7 295.0) scale(0.7500)">
<path d="M12 3l1.9 5.8a2 2 0 0 0 1.3 1.3L21 12l-5.8 1.9a2 2 0 0 0-1.3 1.3L12 21l-1.9-5.8a2 2 0 0 0-1.3-1.3L3 12l5.8-1.9a2 2 0 0 0 1.3-1.3z" fill="none" stroke="#16211B" stroke-width="2.67" stroke-linecap="round" stroke-linejoin="round"/>
</g>
<text id="SNV-staff-continue-with-Mic" x="863.7" y="309.0" font-family="Segoe UI" font-size="14" font-weight="600" fill="#16211B">SNV staff: continue with Microsoft</text>
</g>
<line x1="754.0" y1="356.0" x2="924.0" y2="356.0" stroke="#E2E7E2" stroke-width="1"/>
<text id="partners" x="937.2" y="361.0" font-family="Segoe UI" font-size="12.5" font-weight="400" fill="#7A857F">partners</text>
<line x1="996.0" y1="356.0" x2="1166.0" y2="356.0" stroke="#E2E7E2" stroke-width="1"/>
<g id="field-Email-or-phone">
<text id="label" x="754.0" y="394.0" font-family="Segoe UI" font-size="13" font-weight="600" fill="#45524B">Email or phone</text>
<rect id="input" x="754.0" y="402.0" width="412.0" height="48.0" rx="8" fill="#FFFFFF" stroke="#CFD6D1" stroke-width="1"/>
<g id="icon-user" transform="translate(766.0 417.0) scale(0.7500)">
<path d="M12 3a5 5 0 1 0 0 10 5 5 0 1 0 0-10z" fill="none" stroke="#7A857F" stroke-width="2.40" stroke-linecap="round" stroke-linejoin="round"/>
<path d="M20 21a8 8 0 0 0-16 0" fill="none" stroke="#7A857F" stroke-width="2.40" stroke-linecap="round" stroke-linejoin="round"/>
</g>
<text id="value" x="794.0" y="431.0" font-family="Segoe UI" font-size="14" font-weight="400" fill="#16211B">grace.akello@snv.org</text>
</g>
<g id="field-Password">
<text id="label-2" x="754.0" y="480.0" font-family="Segoe UI" font-size="13" font-weight="600" fill="#45524B">Password</text>
<rect id="input-2" x="754.0" y="488.0" width="412.0" height="48.0" rx="8" fill="#FFFFFF" stroke="#CFD6D1" stroke-width="1"/>
<g id="icon-lock" transform="translate(766.0 503.0) scale(0.7500)">
<path d="M5 11h14a2 2 0 0 1 2 2v7a2 2 0 0 1-2 2H5a2 2 0 0 1-2-2v-7a2 2 0 0 1 2-2z" fill="none" stroke="#7A857F" stroke-width="2.40" stroke-linecap="round" stroke-linejoin="round"/>
<path d="M7 11V7a5 5 0 0 1 10 0v4" fill="none" stroke="#7A857F" stroke-width="2.40" stroke-linecap="round" stroke-linejoin="round"/>
</g>
<text id="value-2" x="794.0" y="517.0" font-family="Segoe UI" font-size="14" font-weight="400" fill="#16211B">••••••••••••</text>
<text id="suffix" x="1120.7" y="516.5" font-family="Segoe UI" font-size="13" font-weight="400" fill="#7A857F">Show</text>
</g>
<g id="checkbox">
<rect x="754.0" y="552.0" width="18.0" height="18.0" rx="4" fill="#1E6B47"/>
<g id="icon-check" transform="translate(756.0 554.0) scale(0.5833)">
<path d="M20 6L9 17l-5-5" fill="none" stroke="#FFFFFF" stroke-width="5.14" stroke-linecap="round" stroke-linejoin="round"/>
</g>
</g>
<text id="Keep-me-signed-in-for-7-days" x="782.0" y="566.0" font-family="Segoe UI" font-size="13" font-weight="400" fill="#45524B">Keep me signed in for 7 days</text>
<text id="Forgot-password" x="1061.6" y="566.0" font-family="Segoe UI" font-size="13" font-weight="600" fill="#1E6B47">Forgot password?</text>
<g id="button-Sign-in">
<rect x="754.0" y="594.0" width="412.0" height="50.0" rx="8" fill="#1E6B47"/>
<text id="Sign-in" x="936.7" y="624.4" font-family="Segoe UI" font-size="15" font-weight="600" fill="#FFFFFF">Sign in</text>
</g>
<rect x="754.0" y="670.0" width="412.0" height="64.0" rx="10" fill="#F5F8F4"/>
<g id="icon-users" transform="translate(770.0 690.0) scale(0.9167)">
<path d="M16 21v-2a4 4 0 0 0-4-4H6a4 4 0 0 0-4 4v2" fill="none" stroke="#1E6B47" stroke-width="2.07" stroke-linecap="round" stroke-linejoin="round"/>
<path d="M9 3a4 4 0 1 0 0 8 4 4 0 1 0 0-8z" fill="none" stroke="#1E6B47" stroke-width="2.07" stroke-linecap="round" stroke-linejoin="round"/>
<path d="M22 21v-2a4 4 0 0 0-3-3.87" fill="none" stroke="#1E6B47" stroke-width="2.07" stroke-linecap="round" stroke-linejoin="round"/>
<path d="M16 3.13a4 4 0 0 1 0 7.75" fill="none" stroke="#1E6B47" stroke-width="2.07" stroke-linecap="round" stroke-linejoin="round"/>
</g>
<g id="para-New-partner-user-SN">
<text id="line" x="806.0" y="697.0" font-family="Segoe UI" font-size="12.5" font-weight="400" fill="#45524B">New partner user? SNV or your MEL focal person sends you</text>
<text id="line-2" x="806.0" y="715.0" font-family="Segoe UI" font-size="12.5" font-weight="400" fill="#45524B">an invitation by email.</text>
</g>
</g>
</svg>
