<svg xmlns="http://www.w3.org/2000/svg" width="1920" height="1080" viewBox="0 0 1920 1080">
<title>13 LogAlto exchange &amp; exports</title>
<rect id="page-background" x="0.0" y="0.0" width="1920.0" height="1080.0" fill="#F4F6F2"/>
<g id="sidebar">
<rect id="sidebar-bg" x="0.0" y="0.0" width="264.0" height="1080.0" fill="#FFFFFF"/>
<line x1="264.0" y1="0.0" x2="264.0" y2="1080.0" stroke="#E2E7E2" stroke-width="1"/>
<g id="logo-mark">
<rect x="24.0" y="18.0" width="36.0" height="36.0" rx="10.0" fill="#1E6B47"/>
<circle cx="47.0" cy="31.0" r="6.0" fill="#F0A12B"/>
<path d="M32.0 46.0 C32.0 35.0 40.0 31.0 50.0 31.0 C50.0 41.0 43.0 46.0 32.0 46.0 Z" fill="#FFFFFF"/>
<path d="M33.0 45.0 L44.0 36.0" fill="none" stroke="#1E6B47" stroke-width="1.6" stroke-linejoin="round" stroke-linecap="round"/>
</g>
<text id="product-name" x="70.0" y="34.0" font-family="Segoe UI" font-size="17" font-weight="700" fill="#16211B">P4FP MEL</text>
<text id="product-sub" x="70.0" y="52.0" font-family="Segoe UI" font-size="11.5" font-weight="400" fill="#7A857F">SNV · Power for Food Uganda</text>
<text id="nav-group-PROGRAMME" x="28.0" y="96.0" font-family="Segoe UI" font-size="10.5" font-weight="600" fill="#A7B0AB" letter-spacing="1">PROGRAMME</text>
<g id="nav-Overview">
<g id="icon-grid" transform="translate(30.0 120.0) scale(0.8333)">
<path d="M4 3h6a1 1 0 0 1 1 1v8a1 1 0 0 1-1 1H4a1 1 0 0 1-1-1V4a1 1 0 0 1 1-1z" fill="none" stroke="#45524B" stroke-width="2.16" stroke-linecap="round" stroke-linejoin="round"/>
<path d="M14 3h6a1 1 0 0 1 1 1v4a1 1 0 0 1-1 1h-6a1 1 0 0 1-1-1V4a1 1 0 0 1 1-1z" fill="none" stroke="#45524B" stroke-width="2.16" stroke-linecap="round" stroke-linejoin="round"/>
<path d="M14 12h6a1 1 0 0 1 1 1v7a1 1 0 0 1-1 1h-6a1 1 0 0 1-1-1v-7a1 1 0 0 1 1-1z" fill="none" stroke="#45524B" stroke-width="2.16" stroke-linecap="round" stroke-linejoin="round"/>
<path d="M4 16h6a1 1 0 0 1 1 1v3a1 1 0 0 1-1 1H4a1 1 0 0 1-1-1v-3a1 1 0 0 1 1-1z" fill="none" stroke="#45524B" stroke-width="2.16" stroke-linecap="round" stroke-linejoin="round"/>
</g>
<text id="label" x="62.0" y="135.0" font-family="Segoe UI" font-size="14" font-weight="400" fill="#45524B">Overview</text>
</g>
<g id="nav-Indicators">
<g id="icon-target" transform="translate(30.0 162.0) scale(0.8333)">
<path d="M12 2a10 10 0 1 0 0 20 10 10 0 1 0 0-20z" fill="none" stroke="#45524B" stroke-width="2.16" stroke-linecap="round" stroke-linejoin="round"/>
<path d="M12 6a6 6 0 1 0 0 12 6 6 0 1 0 0-12z" fill="none" stroke="#45524B" stroke-width="2.16" stroke-linecap="round" stroke-linejoin="round"/>
<path d="M12 10a2 2 0 1 0 0 4 2 2 0 1 0 0-4z" fill="none" stroke="#45524B" stroke-width="2.16" stroke-linecap="round" stroke-linejoin="round"/>
</g>
<text id="label-2" x="62.0" y="177.0" font-family="Segoe UI" font-size="14" font-weight="400" fill="#45524B">Indicators</text>
</g>
<g id="nav-Outcome-harvesting">
<g id="icon-sprout" transform="translate(30.0 204.0) scale(0.8333)">
<path d="M7 20h10" fill="none" stroke="#45524B" stroke-width="2.16" stroke-linecap="round" stroke-linejoin="round"/>
<path d="M10 20c5.5-2.5.8-6.4 3-10" fill="none" stroke="#45524B" stroke-width="2.16" stroke-linecap="round" stroke-linejoin="round"/>
<path d="M9.5 9.4c1.1.8 1.8 2.2 2.3 3.7-2 .4-3.5.4-4.8-.3-1.2-.6-2.3-1.9-3-4.2 2.8-.5 4.4 0 5.5.8z" fill="none" stroke="#45524B" stroke-width="2.16" stroke-linecap="round" stroke-linejoin="round"/>
<path d="M14.1 6a7 7 0 0 0-1.1 4c1.9-.1 3.3-.6 4.3-1.4 1-1 1.6-2.3 1.7-4.6-2.7.1-4 1-4.9 2z" fill="none" stroke="#45524B" stroke-width="2.16" stroke-linecap="round" stroke-linejoin="round"/>
</g>
<text id="label-3" x="62.0" y="219.0" font-family="Segoe UI" font-size="14" font-weight="400" fill="#45524B">Outcome harvesting</text>
</g>
<g id="nav-System-Signals">
<g id="icon-radar" transform="translate(30.0 246.0) scale(0.8333)">
<path d="M12 2l7.07 2.93L22 12l-2.93 7.07L12 22l-7.07-2.93L2 12l2.93-7.07z" fill="none" stroke="#45524B" stroke-width="2.16" stroke-linecap="round" stroke-linejoin="round"/>
<path d="M12 7l3.5 1.5L17 12l-1.5 3.5L12 17l-3.5-1.5L7 12l1.5-3.5z" fill="none" stroke="#45524B" stroke-width="2.16" stroke-linecap="round" stroke-linejoin="round"/>
<path d="M12 2v20" fill="none" stroke="#45524B" stroke-width="2.16" stroke-linecap="round" stroke-linejoin="round"/>
<path d="M2 12h20" fill="none" stroke="#45524B" stroke-width="2.16" stroke-linecap="round" stroke-linejoin="round"/>
</g>
<text id="label-4" x="62.0" y="261.0" font-family="Segoe UI" font-size="14" font-weight="400" fill="#45524B">System Signals</text>
</g>
<g id="nav-GIS-maps">
<g id="icon-map" transform="translate(30.0 288.0) scale(0.8333)">
<path d="M14.1 5.55a2 2 0 0 0 1.8 0l3.65-1.83A1 1 0 0 1 21 4.62v12.76a1 1 0 0 1-.55.9l-4.55 2.27a2 2 0 0 1-1.8 0l-4.2-2.1a2 2 0 0 0-1.8 0l-3.65 1.83A1 1 0 0 1 3 19.38V6.62a1 1 0 0 1 .55-.9l4.55-2.27a2 2 0 0 1 1.8 0z" fill="none" stroke="#45524B" stroke-width="2.16" stroke-linecap="round" stroke-linejoin="round"/>
<path d="M15 5.76v15" fill="none" stroke="#45524B" stroke-width="2.16" stroke-linecap="round" stroke-linejoin="round"/>
<path d="M9 3.24v15" fill="none" stroke="#45524B" stroke-width="2.16" stroke-linecap="round" stroke-linejoin="round"/>
</g>
<text id="label-5" x="62.0" y="303.0" font-family="Segoe UI" font-size="14" font-weight="400" fill="#45524B">GIS &amp; maps</text>
</g>
<text id="nav-group-PARTNERS" x="28.0" y="334.0" font-family="Segoe UI" font-size="10.5" font-weight="600" fill="#A7B0AB" letter-spacing="1">PARTNERS</text>
<g id="nav-Partner-reporting">
<g id="icon-file" transform="translate(30.0 358.0) scale(0.8333)">
<path d="M14 2H6a2 2 0 0 0-2 2v16a2 2 0 0 0 2 2h12a2 2 0 0 0 2-2V8z" fill="none" stroke="#45524B" stroke-width="2.16" stroke-linecap="round" stroke-linejoin="round"/>
<path d="M14 2v6h6" fill="none" stroke="#45524B" stroke-width="2.16" stroke-linecap="round" stroke-linejoin="round"/>
<path d="M16 13H8" fill="none" stroke="#45524B" stroke-width="2.16" stroke-linecap="round" stroke-linejoin="round"/>
<path d="M16 17H8" fill="none" stroke="#45524B" stroke-width="2.16" stroke-linecap="round" stroke-linejoin="round"/>
<path d="M10 9H8" fill="none" stroke="#45524B" stroke-width="2.16" stroke-linecap="round" stroke-linejoin="round"/>
</g>
<text id="label-6" x="62.0" y="373.0" font-family="Segoe UI" font-size="14" font-weight="400" fill="#45524B">Partner reporting</text>
</g>
<g id="nav-Review-queue">
<g id="icon-workflow" transform="translate(30.0 400.0) scale(0.8333)">
<path d="M4 3h4a1 1 0 0 1 1 1v4a1 1 0 0 1-1 1H4a1 1 0 0 1-1-1V4a1 1 0 0 1 1-1z" fill="none" stroke="#45524B" stroke-width="2.16" stroke-linecap="round" stroke-linejoin="round"/>
<path d="M16 15h4a1 1 0 0 1 1 1v4a1 1 0 0 1-1 1h-4a1 1 0 0 1-1-1v-4a1 1 0 0 1 1-1z" fill="none" stroke="#45524B" stroke-width="2.16" stroke-linecap="round" stroke-linejoin="round"/>
<path d="M7 9v4a2 2 0 0 0 2 2h6" fill="none" stroke="#45524B" stroke-width="2.16" stroke-linecap="round" stroke-linejoin="round"/>
</g>
<text id="label-7" x="62.0" y="415.0" font-family="Segoe UI" font-size="14" font-weight="400" fill="#45524B">Review queue</text>
<rect id="badge" x="213.7" y="401.0" width="20.3" height="18.0" rx="9" fill="#1E6B47"/>
<text id="badge-n" x="220.7" y="414.0" font-family="Segoe UI" font-size="11" font-weight="700" fill="#FFFFFF">9</text>
</g>
<g id="nav-Workplans-milestones">
<g id="icon-listcheck" transform="translate(30.0 442.0) scale(0.8333)">
<path d="M3 17l2 2 4-4" fill="none" stroke="#45524B" stroke-width="2.16" stroke-linecap="round" stroke-linejoin="round"/>
<path d="M3 7l2 2 4-4" fill="none" stroke="#45524B" stroke-width="2.16" stroke-linecap="round" stroke-linejoin="round"/>
<path d="M13 6h8" fill="none" stroke="#45524B" stroke-width="2.16" stroke-linecap="round" stroke-linejoin="round"/>
<path d="M13 12h8" fill="none" stroke="#45524B" stroke-width="2.16" stroke-linecap="round" stroke-linejoin="round"/>
<path d="M13 18h8" fill="none" stroke="#45524B" stroke-width="2.16" stroke-linecap="round" stroke-linejoin="round"/>
</g>
<text id="label-8" x="62.0" y="457.0" font-family="Segoe UI" font-size="14" font-weight="400" fill="#45524B">Workplans &amp; milestones</text>
</g>
<text id="nav-group-KNOWLEDGE" x="28.0" y="488.0" font-family="Segoe UI" font-size="10.5" font-weight="600" fill="#A7B0AB" letter-spacing="1">KNOWLEDGE</text>
<g id="nav-Knowledge-library">
<g id="icon-book" transform="translate(30.0 512.0) scale(0.8333)">
<path d="M4 19.5v-15A2.5 2.5 0 0 1 6.5 2H20v20H6.5a2.5 2.5 0 0 1 0-5H20" fill="none" stroke="#45524B" stroke-width="2.16" stroke-linecap="round" stroke-linejoin="round"/>
</g>
<text id="label-9" x="62.0" y="527.0" font-family="Segoe UI" font-size="14" font-weight="400" fill="#45524B">Knowledge library</text>
</g>
<g id="nav-Evidence-store">
<g id="icon-clip" transform="translate(30.0 554.0) scale(0.8333)">
<path d="M21.44 11.05l-9.19 9.19a6 6 0 0 1-8.49-8.49l8.57-8.57A4 4 0 1 1 18 8.84l-8.59 8.57a2 2 0 0 1-2.83-2.83l8.49-8.48" fill="none" stroke="#45524B" stroke-width="2.16" stroke-linecap="round" stroke-linejoin="round"/>
</g>
<text id="label-10" x="62.0" y="569.0" font-family="Segoe UI" font-size="14" font-weight="400" fill="#45524B">Evidence store</text>
</g>
<text id="nav-group-ADMINISTRATION" x="28.0" y="600.0" font-family="Segoe UI" font-size="10.5" font-weight="600" fill="#A7B0AB" letter-spacing="1">ADMINISTRATION</text>
<g id="nav-LogAlto-exports">
<rect id="active-bg" x="14.0" y="614.0" width="236.0" height="40.0" rx="8" fill="#E8F0ED"/>
<rect id="active-bar" x="14.0" y="624.0" width="3.0" height="20.0" rx="1.5" fill="#1E6B47"/>
<g id="icon-database" transform="translate(30.0 624.0) scale(0.8333)">
<path d="M12 2c5 0 9 1.34 9 3s-4 3-9 3-9-1.34-9-3 4-3 9-3z" fill="none" stroke="#1E6B47" stroke-width="2.16" stroke-linecap="round" stroke-linejoin="round"/>
<path d="M3 5v14c0 1.66 4 3 9 3s9-1.34 9-3V5" fill="none" stroke="#1E6B47" stroke-width="2.16" stroke-linecap="round" stroke-linejoin="round"/>
<path d="M3 12c0 1.66 4 3 9 3s9-1.34 9-3" fill="none" stroke="#1E6B47" stroke-width="2.16" stroke-linecap="round" stroke-linejoin="round"/>
</g>
<text id="label-11" x="62.0" y="639.0" font-family="Segoe UI" font-size="14" font-weight="600" fill="#124A31">LogAlto &amp; exports</text>
</g>
<g id="nav-Users-roles">
<g id="icon-users" transform="translate(30.0 666.0) scale(0.8333)">
<path d="M16 21v-2a4 4 0 0 0-4-4H6a4 4 0 0 0-4 4v2" fill="none" stroke="#45524B" stroke-width="2.16" stroke-linecap="round" stroke-linejoin="round"/>
<path d="M9 3a4 4 0 1 0 0 8 4 4 0 1 0 0-8z" fill="none" stroke="#45524B" stroke-width="2.16" stroke-linecap="round" stroke-linejoin="round"/>
<path d="M22 21v-2a4 4 0 0 0-3-3.87" fill="none" stroke="#45524B" stroke-width="2.16" stroke-linecap="round" stroke-linejoin="round"/>
<path d="M16 3.13a4 4 0 0 1 0 7.75" fill="none" stroke="#45524B" stroke-width="2.16" stroke-linecap="round" stroke-linejoin="round"/>
</g>
<text id="label-12" x="62.0" y="681.0" font-family="Segoe UI" font-size="14" font-weight="400" fill="#45524B">Users &amp; roles</text>
</g>
<g id="nav-Audit-trail">
<g id="icon-history" transform="translate(30.0 708.0) scale(0.8333)">
<path d="M3 12a9 9 0 1 0 9-9 9.75 9.75 0 0 0-6.74 2.74L3 8" fill="none" stroke="#45524B" stroke-width="2.16" stroke-linecap="round" stroke-linejoin="round"/>
<path d="M3 3v5h5" fill="none" stroke="#45524B" stroke-width="2.16" stroke-linecap="round" stroke-linejoin="round"/>
<path d="M12 7v5l4 2" fill="none" stroke="#45524B" stroke-width="2.16" stroke-linecap="round" stroke-linejoin="round"/>
</g>
<text id="label-13" x="62.0" y="723.0" font-family="Segoe UI" font-size="14" font-weight="400" fill="#45524B">Audit trail</text>
</g>
<g id="sidebar-help-card">
<rect x="16.0" y="904.0" width="232.0" height="84.0" rx="10" fill="#FDF4E6"/>
<g id="icon-phone" transform="translate(30.0 918.0) scale(0.8333)">
<path d="M7 2h10a2 2 0 0 1 2 2v16a2 2 0 0 1-2 2H7a2 2 0 0 1-2-2V4a2 2 0 0 1 2-2z" fill="none" stroke="#A86400" stroke-width="2.16" stroke-linecap="round" stroke-linejoin="round"/>
<path d="M12 18h.01" fill="none" stroke="#A86400" stroke-width="2.16" stroke-linecap="round" stroke-linejoin="round"/>
</g>
<text id="Mobile-field-app" x="58.0" y="933.0" font-family="Segoe UI" font-size="13" font-weight="600" fill="#16211B">Mobile field app</text>
<text id="Android-app-built-in-Flutte" x="30.0" y="955.0" font-family="Segoe UI" font-size="12" font-weight="400" fill="#45524B">Android app, built in Flutter.</text>
<text id="Offline-capture-GPS-photos" x="30.0" y="973.0" font-family="Segoe UI" font-size="12" font-weight="400" fill="#45524B">Offline capture, GPS, photos.</text>
</g>
<g id="sidebar-user">
<line x1="0.0" y1="1004.0" x2="264.0" y2="1004.0" stroke="#E2E7E2" stroke-width="1"/>
<g id="avatar-GA">
<circle cx="44.0" cy="1042.0" r="18.0" fill="#DBE7E2"/>
<text id="GA" x="34.1" y="1048.5" font-family="Segoe UI" font-size="14.4" font-weight="600" fill="#1B6040">GA</text>
</g>
<text id="Grace-Akello" x="72.0" y="1038.0" font-family="Segoe UI" font-size="14" font-weight="600" fill="#16211B">Grace Akello</text>
<text id="SNV-MEL-Reviewer" x="72.0" y="1057.0" font-family="Segoe UI" font-size="12" font-weight="400" fill="#7A857F">SNV MEL Reviewer</text>
<rect id="sign-out-button" x="214.0" y="1022.0" width="38.0" height="38.0" rx="8" fill="#F4F6F3"/>
<g id="icon-logout" transform="translate(223.0 1031.0) scale(0.8333)">
<path d="M9 21H5a2 2 0 0 1-2-2V5a2 2 0 0 1 2-2h4" fill="none" stroke="#C2362F" stroke-width="2.40" stroke-linecap="round" stroke-linejoin="round"/>
<path d="M16 17l5-5-5-5" fill="none" stroke="#C2362F" stroke-width="2.40" stroke-linecap="round" stroke-linejoin="round"/>
<path d="M21 12H9" fill="none" stroke="#C2362F" stroke-width="2.40" stroke-linecap="round" stroke-linejoin="round"/>
</g>
</g>
</g>
<g id="top-bar">
<rect id="top-bar-bg" x="264.0" y="0.0" width="1656.0" height="68.0" fill="#FFFFFF"/>
<line x1="264.0" y1="68.0" x2="1920.0" y2="68.0" stroke="#E2E7E2" stroke-width="1"/>
<text id="crumb-Administration" x="296.0" y="40.0" font-family="Segoe UI" font-size="14" font-weight="400" fill="#7A857F">Administration</text>
<g id="icon-chevright" transform="translate(393.0 29.0) scale(0.6667)">
<path d="M9 18l6-6-6-6" fill="none" stroke="#A7B0AB" stroke-width="2.70" stroke-linecap="round" stroke-linejoin="round"/>
</g>
<text id="crumb-LogAlto-exports" x="415.0" y="40.0" font-family="Segoe UI" font-size="14" font-weight="600" fill="#16211B">LogAlto &amp; exports</text>
<g id="avatar-GA-2">
<circle cx="1870.0" cy="34.0" r="18.0" fill="#DBE7E2"/>
<text id="GA-2" x="1860.1" y="40.5" font-family="Segoe UI" font-size="14.4" font-weight="600" fill="#1B6040">GA</text>
</g>
<line x1="1836.0" y1="20.0" x2="1836.0" y2="48.0" stroke="#E2E7E2" stroke-width="1"/>
<g id="notifications">
<g id="icon-bell" transform="translate(1792.0 23.0) scale(0.9167)">
<path d="M6 8a6 6 0 0 1 12 0c0 7 3 9 3 9H3s3-2 3-9" fill="none" stroke="#45524B" stroke-width="1.96" stroke-linecap="round" stroke-linejoin="round"/>
<path d="M10.3 21a1.94 1.94 0 0 0 3.4 0" fill="none" stroke="#45524B" stroke-width="1.96" stroke-linecap="round" stroke-linejoin="round"/>
</g>
<circle cx="1811.0" cy="25.0" r="7.0" fill="#C2362F"/>
<text id="4" x="1808.1" y="29.0" font-family="Segoe UI" font-size="10" font-weight="700" fill="#FFFFFF">4</text>
</g>
<g id="search">
<rect x="1472.0" y="16.0" width="296.0" height="36.0" rx="8" fill="#F4F6F3" stroke="#E2E7E2" stroke-width="1"/>
<g id="icon-search" transform="translate(1484.0 25.0) scale(0.7500)">
<path d="M11 3a8 8 0 1 0 0 16 8 8 0 1 0 0-16z" fill="none" stroke="#7A857F" stroke-width="2.40" stroke-linecap="round" stroke-linejoin="round"/>
<path d="M21 21l-4.3-4.3" fill="none" stroke="#7A857F" stroke-width="2.40" stroke-linecap="round" stroke-linejoin="round"/>
</g>
<text id="Search-indicators-outcomes" x="1512.0" y="39.0" font-family="Segoe UI" font-size="13" font-weight="400" fill="#A7B0AB">Search indicators, outcomes, reports…</text>
<rect x="1734.0" y="24.0" width="24.0" height="20.0" rx="4" fill="#FFFFFF" stroke="#E2E7E2" stroke-width="1"/>
<text id="layer" x="1743.7" y="38.0" font-family="Segoe UI" font-size="11" font-weight="600" fill="#7A857F">/</text>
</g>
<g id="period-selector">
<rect x="1234.0" y="16.0" width="222.0" height="36.0" rx="8" fill="#FFFFFF" stroke="#E2E7E2" stroke-width="1"/>
<g id="icon-calendar" transform="translate(1246.0 25.0) scale(0.7500)">
<path d="M5 4h14a2 2 0 0 1 2 2v14a2 2 0 0 1-2 2H5a2 2 0 0 1-2-2V6a2 2 0 0 1 2-2z" fill="none" stroke="#1E6B47" stroke-width="2.40" stroke-linecap="round" stroke-linejoin="round"/>
<path d="M16 2v4" fill="none" stroke="#1E6B47" stroke-width="2.40" stroke-linecap="round" stroke-linejoin="round"/>
<path d="M8 2v4" fill="none" stroke="#1E6B47" stroke-width="2.40" stroke-linecap="round" stroke-linejoin="round"/>
<path d="M3 10h18" fill="none" stroke="#1E6B47" stroke-width="2.40" stroke-linecap="round" stroke-linejoin="round"/>
</g>
<text id="Period" x="1272.0" y="39.0" font-family="Segoe UI" font-size="12" font-weight="400" fill="#7A857F">Period</text>
<text id="Q3-2026-Jul-Sep" x="1309.7" y="39.0" font-family="Segoe UI" font-size="13" font-weight="600" fill="#16211B">Q3 2026 · Jul–Sep</text>
<g id="icon-chevdown" transform="translate(1430.0 27.0) scale(0.6667)">
<path d="M6 9l6 6 6-6" fill="none" stroke="#7A857F" stroke-width="2.70" stroke-linecap="round" stroke-linejoin="round"/>
</g>
</g>
</g>
<text id="page-title" x="296.0" y="126.0" font-family="Segoe UI" font-size="26" font-weight="700" fill="#16211B">LogAlto exchange &amp; exports</text>
<text id="page-subtitle" x="296.0" y="152.0" font-family="Segoe UI" font-size="14" font-weight="400" fill="#7A857F">The MEL platform complements LogAlto: approved P4FP results flow to SNV's corporate system, and every record can leave as CSV, Excel or PDF</text>
<g id="button-Run-sync-now">
<rect x="1742.2" y="108.0" width="145.8" height="40.0" rx="8" fill="#1E6B47"/>
<g id="icon-refresh" transform="translate(1758.2 119.0) scale(0.7500)">
<path d="M21 12a9 9 0 0 0-9-9 9.75 9.75 0 0 0-6.74 2.74L3 8" fill="none" stroke="#FFFFFF" stroke-width="2.67" stroke-linecap="round" stroke-linejoin="round"/>
<path d="M3 3v5h5" fill="none" stroke="#FFFFFF" stroke-width="2.67" stroke-linecap="round" stroke-linejoin="round"/>
<path d="M3 12a9 9 0 0 0 9 9 9.75 9.75 0 0 0 6.74-2.74L21 16" fill="none" stroke="#FFFFFF" stroke-width="2.67" stroke-linecap="round" stroke-linejoin="round"/>
<path d="M16 16h5v5" fill="none" stroke="#FFFFFF" stroke-width="2.67" stroke-linecap="round" stroke-linejoin="round"/>
</g>
<text id="Run-sync-now" x="1784.2" y="133.0" font-family="Segoe UI" font-size="14" font-weight="600" fill="#FFFFFF">Run sync now</text>
</g>
<rect id="card-bg" x="296.0" y="180.0" width="1592.0" height="200.0" rx="12" fill="#FFFFFF" stroke="#E2E7E2" stroke-width="1"/>
<g id="data-flow">
<rect x="320.0" y="220.0" width="330.0" height="120.0" rx="12" fill="#EEF3F9" stroke="#AAC4DF" stroke-width="1"/>
<rect x="340.0" y="240.0" width="44.0" height="44.0" rx="10" fill="#2B6CB0"/>
<g id="icon-users-2" transform="translate(350.0 250.0) scale(1.0000)">
<path d="M16 21v-2a4 4 0 0 0-4-4H6a4 4 0 0 0-4 4v2" fill="none" stroke="#FFFFFF" stroke-width="2.00" stroke-linecap="round" stroke-linejoin="round"/>
<path d="M9 3a4 4 0 1 0 0 8 4 4 0 1 0 0-8z" fill="none" stroke="#FFFFFF" stroke-width="2.00" stroke-linecap="round" stroke-linejoin="round"/>
<path d="M22 21v-2a4 4 0 0 0-3-3.87" fill="none" stroke="#FFFFFF" stroke-width="2.00" stroke-linecap="round" stroke-linejoin="round"/>
<path d="M16 3.13a4 4 0 0 1 0 7.75" fill="none" stroke="#FFFFFF" stroke-width="2.00" stroke-linecap="round" stroke-linejoin="round"/>
</g>
<text id="Partners-field-app" x="400.0" y="260.0" font-family="Segoe UI" font-size="15" font-weight="700" fill="#16211B">Partners &amp; field app</text>
<g id="para-Reports-adoption-re">
<text id="line" x="400.0" y="282.0" font-family="Segoe UI" font-size="12.5" font-weight="400" fill="#45524B">Reports, adoption records, outcomes,</text>
<text id="line-2" x="400.0" y="300.0" font-family="Segoe UI" font-size="12.5" font-weight="400" fill="#45524B">evidence</text>
</g>
<line x1="660.0" y1="280.0" x2="714.7" y2="280.0" stroke="#45524B" stroke-width="2"/>
<path d="M706.6666666666666 274 L714.6666666666666 280 L706.6666666666666 286" fill="none" stroke="#45524B" stroke-width="2" stroke-linejoin="round" stroke-linecap="round"/>
<rect x="724.7" y="220.0" width="330.0" height="120.0" rx="12" fill="#F8F3EB" stroke="#DCC199" stroke-width="1"/>
<rect x="744.7" y="240.0" width="44.0" height="44.0" rx="10" fill="#A86400"/>
<g id="icon-shield" transform="translate(754.7 250.0) scale(1.0000)">
<path d="M12 22s8-4 8-10V5l-8-3-8 3v7c0 6 8 10 8 10z" fill="none" stroke="#FFFFFF" stroke-width="2.00" stroke-linecap="round" stroke-linejoin="round"/>
<path d="M9 12l2 2 4-4" fill="none" stroke="#FFFFFF" stroke-width="2.00" stroke-linecap="round" stroke-linejoin="round"/>
</g>
<text id="SNV-MEL-review" x="804.7" y="260.0" font-family="Segoe UI" font-size="15" font-weight="700" fill="#16211B">SNV MEL review</text>
<g id="para-Validate-return">
<text id="line-3" x="804.7" y="282.0" font-family="Segoe UI" font-size="12.5" font-weight="400" fill="#45524B">Validate · return · approve</text>
</g>
<line x1="1064.7" y1="280.0" x2="1119.3" y2="280.0" stroke="#45524B" stroke-width="2"/>
<path d="M1111.3333333333335 274 L1119.3333333333335 280 L1111.3333333333335 286" fill="none" stroke="#45524B" stroke-width="2" stroke-linejoin="round" stroke-linecap="round"/>
<rect x="1129.3" y="220.0" width="330.0" height="120.0" rx="12" fill="#EDF3F0" stroke="#A5C4B5" stroke-width="1"/>
<rect x="1149.3" y="240.0" width="44.0" height="44.0" rx="10" fill="#1E6B47"/>
<g id="icon-database-2" transform="translate(1159.3 250.0) scale(1.0000)">
<path d="M12 2c5 0 9 1.34 9 3s-4 3-9 3-9-1.34-9-3 4-3 9-3z" fill="none" stroke="#FFFFFF" stroke-width="2.00" stroke-linecap="round" stroke-linejoin="round"/>
<path d="M3 5v14c0 1.66 4 3 9 3s9-1.34 9-3V5" fill="none" stroke="#FFFFFF" stroke-width="2.00" stroke-linecap="round" stroke-linejoin="round"/>
<path d="M3 12c0 1.66 4 3 9 3s9-1.34 9-3" fill="none" stroke="#FFFFFF" stroke-width="2.00" stroke-linecap="round" stroke-linejoin="round"/>
</g>
<text id="P4FP-MEL-platform" x="1209.3" y="260.0" font-family="Segoe UI" font-size="15" font-weight="700" fill="#16211B">P4FP MEL platform</text>
<g id="para-Approved-data-only">
<text id="line-4" x="1209.3" y="282.0" font-family="Segoe UI" font-size="12.5" font-weight="400" fill="#45524B">Approved data only · audit trail</text>
</g>
<line x1="1469.3" y1="280.0" x2="1524.0" y2="280.0" stroke="#45524B" stroke-width="2"/>
<path d="M1516.0000000000002 274 L1524.0000000000002 280 L1516.0000000000002 286" fill="none" stroke="#45524B" stroke-width="2" stroke-linejoin="round" stroke-linecap="round"/>
<rect x="1534.0" y="220.0" width="330.0" height="120.0" rx="12" fill="#F2F3F4" stroke="#BDC2C6" stroke-width="1"/>
<rect x="1554.0" y="240.0" width="44.0" height="44.0" rx="10" fill="#5B6770"/>
<g id="icon-api" transform="translate(1564.0 250.0) scale(1.0000)">
<path d="M8 3H7a2 2 0 0 0-2 2v5a2 2 0 0 1-2 2 2 2 0 0 1 2 2v5c0 1.1.9 2 2 2h1" fill="none" stroke="#FFFFFF" stroke-width="2.00" stroke-linecap="round" stroke-linejoin="round"/>
<path d="M16 21h1a2 2 0 0 0 2-2v-5c0-1.1.9-2 2-2a2 2 0 0 1-2-2V5a2 2 0 0 0-2-2h-1" fill="none" stroke="#FFFFFF" stroke-width="2.00" stroke-linecap="round" stroke-linejoin="round"/>
</g>
<text id="LogAlto-SNV-corporate" x="1614.0" y="260.0" font-family="Segoe UI" font-size="15" font-weight="700" fill="#16211B">LogAlto (SNV corporate)</text>
<g id="para-Mapped-indicators">
<text id="line-5" x="1614.0" y="282.0" font-family="Segoe UI" font-size="12.5" font-weight="400" fill="#45524B">Mapped indicators · nightly push</text>
</g>
<text id="API" x="1486.9" y="268.0" font-family="Segoe UI" font-size="12" font-weight="700" fill="#45524B">API</text>
<text id="or-Excel-pack" x="1463.7" y="308.0" font-family="Segoe UI" font-size="11.5" font-weight="400" fill="#7A857F">or Excel pack</text>
</g>
<rect id="Indicator-mapping-to-LogAlto-bg" x="296.0" y="400.0" width="1000.0" height="652.0" rx="12" fill="#FFFFFF" stroke="#E2E7E2" stroke-width="1"/>
<text id="title" x="320.0" y="438.0" font-family="Segoe UI" font-size="17" font-weight="600" fill="#16211B">Indicator mapping to LogAlto</text>
<text id="subtitle" x="320.0" y="460.0" font-family="Segoe UI" font-size="13" font-weight="400" fill="#7A857F">Set up with SNV's LogAlto focal point at inception</text>
<text id="card-action" x="1193.0" y="438.0" font-family="Segoe UI" font-size="13" font-weight="600" fill="#1E6B47">Edit mapping</text>
<g id="table">
<rect id="header-bg" x="297.0" y="480.0" width="998.0" height="40.0" fill="#F7F9F6"/>
<text id="P4FP-INDICATOR" x="313.0" y="504.0" font-family="Segoe UI" font-size="11" font-weight="600" fill="#7A857F" letter-spacing="0.6">P4FP INDICATOR</text>
<text id="LOGALTO-INDICATOR" x="643.0" y="504.0" font-family="Segoe UI" font-size="11" font-weight="600" fill="#7A857F" letter-spacing="0.6">LOGALTO INDICATOR</text>
<text id="LAST-VALUE-PUSHED" x="866.0" y="504.0" font-family="Segoe UI" font-size="11" font-weight="600" fill="#7A857F" letter-spacing="0.6">LAST VALUE PUSHED</text>
<text id="SYNC" x="1013.0" y="504.0" font-family="Segoe UI" font-size="11" font-weight="600" fill="#7A857F" letter-spacing="0.6">SYNC</text>
<g id="row-1">
<line x1="297.0" y1="520.0" x2="1295.0" y2="520.0" stroke="#EEF1ED" stroke-width="1"/>
<text id="PHI-8-Farmers-adopting-RA" x="313.0" y="561.4" font-family="Segoe UI" font-size="13" font-weight="400" fill="#16211B">PHI 8 · Farmers adopting RA-PURE</text>
<text id="SNV-AGR-03" x="643.0" y="561.4" font-family="Segoe UI" font-size="13" font-weight="400" fill="#16211B">SNV-AGR-03</text>
<text id="18-420" x="943.1" y="561.4" font-family="Segoe UI" font-size="13" font-weight="400" fill="#16211B">18,420</text>
<g id="chip-Synced">
<rect x="1013.0" y="544.9" width="72.6" height="24.0" rx="12.0" fill="#E3F1EA"/>
<circle cx="1027.0" cy="556.9" r="4.0" fill="#178A4C"/>
<text id="Synced" x="1037.0" y="561.2" font-family="Segoe UI" font-size="12" font-weight="600" fill="#147943">Synced</text>
</g>
<text id="24-Sep-02-00" x="1093.6" y="561.4" font-family="Segoe UI" font-size="12" font-weight="400" fill="#7A857F">24 Sep 02:00</text>
</g>
<g id="row-2">
<line x1="297.0" y1="593.7" x2="1295.0" y2="593.7" stroke="#EEF1ED" stroke-width="1"/>
<text id="OI-1-2-Hectares-under-RA" x="313.0" y="635.1" font-family="Segoe UI" font-size="13" font-weight="400" fill="#16211B">OI 1.2 · Hectares under RA</text>
<text id="SNV-AGR-07" x="643.0" y="635.1" font-family="Segoe UI" font-size="13" font-weight="400" fill="#16211B">SNV-AGR-07</text>
<text id="8-960-ha" x="932.6" y="635.1" font-family="Segoe UI" font-size="13" font-weight="400" fill="#16211B">8,960 ha</text>
<g id="chip-Synced-2">
<rect x="1013.0" y="618.6" width="72.6" height="24.0" rx="12.0" fill="#E3F1EA"/>
<circle cx="1027.0" cy="630.6" r="4.0" fill="#178A4C"/>
<text id="Synced-2" x="1037.0" y="634.9" font-family="Segoe UI" font-size="12" font-weight="600" fill="#147943">Synced</text>
</g>
<text id="24-Sep-02-00-2" x="1093.6" y="635.1" font-family="Segoe UI" font-size="12" font-weight="400" fill="#7A857F">24 Sep 02:00</text>
</g>
<g id="row-3">
<line x1="297.0" y1="667.4" x2="1295.0" y2="667.4" stroke="#EEF1ED" stroke-width="1"/>
<text id="OI-2-1-Agribusinesses-usin" x="313.0" y="708.8" font-family="Segoe UI" font-size="13" font-weight="400" fill="#16211B">OI 2.1 · Agribusinesses using PURE</text>
<text id="SNV-ENE-11" x="643.0" y="708.8" font-family="Segoe UI" font-size="13" font-weight="400" fill="#16211B">SNV-ENE-11</text>
<text id="312" x="960.0" y="708.8" font-family="Segoe UI" font-size="13" font-weight="400" fill="#16211B">312</text>
<g id="chip-Synced-3">
<rect x="1013.0" y="692.3" width="72.6" height="24.0" rx="12.0" fill="#E3F1EA"/>
<circle cx="1027.0" cy="704.3" r="4.0" fill="#178A4C"/>
<text id="Synced-3" x="1037.0" y="708.6" font-family="Segoe UI" font-size="12" font-weight="600" fill="#147943">Synced</text>
</g>
<text id="24-Sep-02-00-3" x="1093.6" y="708.8" font-family="Segoe UI" font-size="12" font-weight="400" fill="#7A857F">24 Sep 02:00</text>
</g>
<g id="row-4">
<line x1="297.0" y1="741.1" x2="1295.0" y2="741.1" stroke="#EEF1ED" stroke-width="1"/>
<text id="OI-2-3-Solar-units-install" x="313.0" y="782.5" font-family="Segoe UI" font-size="13" font-weight="400" fill="#16211B">OI 2.3 · Solar units installed</text>
<text id="SNV-ENE-04" x="643.0" y="782.5" font-family="Segoe UI" font-size="13" font-weight="400" fill="#16211B">SNV-ENE-04</text>
<text id="1-146" x="950.1" y="782.5" font-family="Segoe UI" font-size="13" font-weight="400" fill="#16211B">1,146</text>
<g id="chip-Queued">
<rect x="1013.0" y="766.0" width="77.1" height="24.0" rx="12.0" fill="#F6EFE4"/>
<circle cx="1027.0" cy="778.0" r="4.0" fill="#B7791F"/>
<text id="Queued" x="1037.0" y="782.3" font-family="Segoe UI" font-size="12" font-weight="600" fill="#A16A1B">Queued</text>
</g>
<text id="74-new-approved" x="1098.1" y="782.5" font-family="Segoe UI" font-size="12" font-weight="400" fill="#7A857F">74 new approved</text>
</g>
<g id="row-5">
<line x1="297.0" y1="814.9" x2="1295.0" y2="814.9" stroke="#EEF1ED" stroke-width="1"/>
<text id="OI-3-1-People-trained" x="313.0" y="856.2" font-family="Segoe UI" font-size="13" font-weight="400" fill="#16211B">OI 3.1 · People trained</text>
<text id="SNV-CAP-01" x="643.0" y="856.2" font-family="Segoe UI" font-size="13" font-weight="400" fill="#16211B">SNV-CAP-01</text>
<text id="24-870" x="943.1" y="856.2" font-family="Segoe UI" font-size="13" font-weight="400" fill="#16211B">24,870</text>
<g id="chip-Conflict">
<rect x="1013.0" y="839.7" width="76.0" height="24.0" rx="12.0" fill="#FAEDE4"/>
<circle cx="1027.0" cy="851.7" r="4.0" fill="#D9651B"/>
<text id="Conflict" x="1037.0" y="856.0" font-family="Segoe UI" font-size="12" font-weight="600" fill="#BF5918">Conflict</text>
</g>
<text id="LogAlto-shows-24-210" x="1097.0" y="856.2" font-family="Segoe UI" font-size="12" font-weight="400" fill="#7A857F">LogAlto shows 24,210</text>
</g>
<g id="row-6">
<line x1="297.0" y1="888.6" x2="1295.0" y2="888.6" stroke="#EEF1ED" stroke-width="1"/>
<text id="OI-4-2-Finance-mobilised" x="313.0" y="929.9" font-family="Segoe UI" font-size="13" font-weight="400" fill="#16211B">OI 4.2 · Finance mobilised</text>
<text id="SNV-FIN-02" x="643.0" y="929.9" font-family="Segoe UI" font-size="13" font-weight="400" fill="#16211B">SNV-FIN-02</text>
<text id="1-9M" x="945.5" y="929.9" font-family="Segoe UI" font-size="13" font-weight="400" fill="#16211B">€1.9M</text>
<g id="chip-Synced-4">
<rect x="1013.0" y="913.4" width="72.6" height="24.0" rx="12.0" fill="#E3F1EA"/>
<circle cx="1027.0" cy="925.4" r="4.0" fill="#178A4C"/>
<text id="Synced-4" x="1037.0" y="929.7" font-family="Segoe UI" font-size="12" font-weight="600" fill="#147943">Synced</text>
</g>
<text id="24-Sep-02-00-4" x="1093.6" y="929.9" font-family="Segoe UI" font-size="12" font-weight="400" fill="#7A857F">24 Sep 02:00</text>
</g>
<g id="row-7">
<line x1="297.0" y1="962.3" x2="1295.0" y2="962.3" stroke="#EEF1ED" stroke-width="1"/>
<text id="SS1-SS8-Signal-scores" x="313.0" y="1003.6" font-family="Segoe UI" font-size="13" font-weight="400" fill="#16211B">SS1–SS8 · Signal scores</text>
<text id="layer-2" x="643.0" y="1003.6" font-family="Segoe UI" font-size="13" font-weight="400" fill="#16211B">—</text>
<text id="layer-3" x="968.0" y="1003.6" font-family="Segoe UI" font-size="13" font-weight="400" fill="#16211B">—</text>
<g id="chip-Not-mapped">
<rect x="1013.0" y="987.1" width="103.0" height="24.0" rx="12.0" fill="#EFF0F0"/>
<circle cx="1027.0" cy="999.1" r="4.0" fill="#7A857F"/>
<text id="Not-mapped" x="1037.0" y="1003.5" font-family="Segoe UI" font-size="12" font-weight="600" fill="#6B7570">Not mapped</text>
</g>
<text id="P4FP-only-export-only" x="1124.0" y="1003.6" font-family="Segoe UI" font-size="12" font-weight="400" fill="#7A857F">P4FP-only · export only</text>
</g>
</g>
<rect id="Exports-bg" x="1316.0" y="400.0" width="572.0" height="330.0" rx="12" fill="#FFFFFF" stroke="#E2E7E2" stroke-width="1"/>
<text id="title-2" x="1340.0" y="438.0" font-family="Segoe UI" font-size="17" font-weight="600" fill="#16211B">Exports</text>
<text id="subtitle-2" x="1340.0" y="460.0" font-family="Segoe UI" font-size="13" font-weight="400" fill="#7A857F">Validated records only unless you choose otherwise</text>
<rect x="1340.0" y="484.0" width="524.0" height="52.0" rx="10" fill="#F7F9F6"/>
<g id="icon-globe" transform="translate(1354.0 499.0) scale(0.9167)">
<path d="M12 2a10 10 0 1 0 0 20 10 10 0 1 0 0-20z" fill="none" stroke="#1E6B47" stroke-width="1.96" stroke-linecap="round" stroke-linejoin="round"/>
<path d="M2 12h20" fill="none" stroke="#1E6B47" stroke-width="1.96" stroke-linecap="round" stroke-linejoin="round"/>
<path d="M12 2a15.3 15.3 0 0 1 4 10 15.3 15.3 0 0 1-4 10 15.3 15.3 0 0 1-4-10 15.3 15.3 0 0 1 4-10z" fill="none" stroke="#1E6B47" stroke-width="1.96" stroke-linecap="round" stroke-linejoin="round"/>
</g>
<text id="Donor-report-extract-IKEA-F" x="1390.0" y="507.0" font-family="Segoe UI" font-size="13.5" font-weight="600" fill="#16211B">Donor report extract (IKEA Foundation)</text>
<text id="Indicators-GESI-outcomes" x="1390.0" y="525.0" font-family="Segoe UI" font-size="12" font-weight="400" fill="#7A857F">Indicators + GESI + outcomes, by period</text>
<text id="Excel-PDF" x="1787.2" y="516.0" font-family="Segoe UI" font-size="12.5" font-weight="600" fill="#1E6B47">Excel · PDF</text>
<rect x="1340.0" y="544.0" width="524.0" height="52.0" rx="10" fill="#F7F9F6"/>
<g id="icon-database-3" transform="translate(1354.0 559.0) scale(0.9167)">
<path d="M12 2c5 0 9 1.34 9 3s-4 3-9 3-9-1.34-9-3 4-3 9-3z" fill="none" stroke="#1E6B47" stroke-width="1.96" stroke-linecap="round" stroke-linejoin="round"/>
<path d="M3 5v14c0 1.66 4 3 9 3s9-1.34 9-3V5" fill="none" stroke="#1E6B47" stroke-width="1.96" stroke-linecap="round" stroke-linejoin="round"/>
<path d="M3 12c0 1.66 4 3 9 3s9-1.34 9-3" fill="none" stroke="#1E6B47" stroke-width="1.96" stroke-linecap="round" stroke-linejoin="round"/>
</g>
<text id="LogAlto-import-pack" x="1390.0" y="567.0" font-family="Segoe UI" font-size="13.5" font-weight="600" fill="#16211B">LogAlto import pack</text>
<text id="Fallback-when-the-API-is-una" x="1390.0" y="585.0" font-family="Segoe UI" font-size="12" font-weight="400" fill="#7A857F">Fallback when the API is unavailable</text>
<text id="Excel" x="1819.6" y="576.0" font-family="Segoe UI" font-size="12.5" font-weight="600" fill="#1E6B47">Excel</text>
<rect x="1340.0" y="604.0" width="524.0" height="52.0" rx="10" fill="#F7F9F6"/>
<g id="icon-download" transform="translate(1354.0 619.0) scale(0.9167)">
<path d="M21 15v4a2 2 0 0 1-2 2H5a2 2 0 0 1-2-2v-4" fill="none" stroke="#1E6B47" stroke-width="1.96" stroke-linecap="round" stroke-linejoin="round"/>
<path d="M7 10l5 5 5-5" fill="none" stroke="#1E6B47" stroke-width="1.96" stroke-linecap="round" stroke-linejoin="round"/>
<path d="M12 15V3" fill="none" stroke="#1E6B47" stroke-width="1.96" stroke-linecap="round" stroke-linejoin="round"/>
</g>
<text id="Full-data-export" x="1390.0" y="627.0" font-family="Segoe UI" font-size="13.5" font-weight="600" fill="#16211B">Full data export</text>
<text id="All-records-metadata-and-at" x="1390.0" y="645.0" font-family="Segoe UI" font-size="12" font-weight="400" fill="#7A857F">All records, metadata and attachments</text>
<text id="CSV-Excel-ZIP" x="1759.0" y="636.0" font-family="Segoe UI" font-size="12.5" font-weight="600" fill="#1E6B47">CSV · Excel · ZIP</text>
<rect x="1340.0" y="664.0" width="524.0" height="52.0" rx="10" fill="#F7F9F6"/>
<g id="icon-sprout-2" transform="translate(1354.0 679.0) scale(0.9167)">
<path d="M7 20h10" fill="none" stroke="#1E6B47" stroke-width="1.96" stroke-linecap="round" stroke-linejoin="round"/>
<path d="M10 20c5.5-2.5.8-6.4 3-10" fill="none" stroke="#1E6B47" stroke-width="1.96" stroke-linecap="round" stroke-linejoin="round"/>
<path d="M9.5 9.4c1.1.8 1.8 2.2 2.3 3.7-2 .4-3.5.4-4.8-.3-1.2-.6-2.3-1.9-3-4.2 2.8-.5 4.4 0 5.5.8z" fill="none" stroke="#1E6B47" stroke-width="1.96" stroke-linecap="round" stroke-linejoin="round"/>
<path d="M14.1 6a7 7 0 0 0-1.1 4c1.9-.1 3.3-.6 4.3-1.4 1-1 1.6-2.3 1.7-4.6-2.7.1-4 1-4.9 2z" fill="none" stroke="#1E6B47" stroke-width="1.96" stroke-linecap="round" stroke-linejoin="round"/>
</g>
<text id="Outcome-harvesting-log" x="1390.0" y="687.0" font-family="Segoe UI" font-size="13.5" font-weight="600" fill="#16211B">Outcome harvesting log</text>
<text id="Approved-outcomes-with-evide" x="1390.0" y="705.0" font-family="Segoe UI" font-size="12" font-weight="400" fill="#7A857F">Approved outcomes with evidence links</text>
<text id="Excel-PDF-2" x="1787.2" y="696.0" font-family="Segoe UI" font-size="12.5" font-weight="600" fill="#1E6B47">Excel · PDF</text>
<rect id="Daily-backups-bg" x="1316.0" y="750.0" width="572.0" height="302.0" rx="12" fill="#FFFFFF" stroke="#E2E7E2" stroke-width="1"/>
<text id="title-3" x="1340.0" y="788.0" font-family="Segoe UI" font-size="17" font-weight="600" fill="#16211B">Daily backups</text>
<text id="subtitle-3" x="1340.0" y="810.0" font-family="Segoe UI" font-size="13" font-weight="400" fill="#7A857F">Automatic at 02:00 · encrypted · SNV admin can download</text>
<g id="icon-check" transform="translate(1340.0 840.0) scale(0.7500)">
<path d="M20 6L9 17l-5-5" fill="none" stroke="#178A4C" stroke-width="3.20" stroke-linecap="round" stroke-linejoin="round"/>
</g>
<text id="24-Sep-2026-02-00" x="1368.0" y="854.0" font-family="Segoe UI" font-size="13.5" font-weight="400" fill="#16211B">24 Sep 2026 · 02:00</text>
<text id="1-24-GB" x="1694.2" y="854.0" font-family="Segoe UI" font-size="13" font-weight="400" fill="#7A857F">1.24 GB</text>
<text id="Download" x="1803.9" y="854.0" font-family="Segoe UI" font-size="13" font-weight="600" fill="#1E6B47">Download</text>
<g id="icon-check-2" transform="translate(1340.0 876.0) scale(0.7500)">
<path d="M20 6L9 17l-5-5" fill="none" stroke="#178A4C" stroke-width="3.20" stroke-linecap="round" stroke-linejoin="round"/>
</g>
<text id="23-Sep-2026-02-00" x="1368.0" y="890.0" font-family="Segoe UI" font-size="13.5" font-weight="400" fill="#16211B">23 Sep 2026 · 02:00</text>
<text id="1-23-GB" x="1694.2" y="890.0" font-family="Segoe UI" font-size="13" font-weight="400" fill="#7A857F">1.23 GB</text>
<text id="Download-2" x="1803.9" y="890.0" font-family="Segoe UI" font-size="13" font-weight="600" fill="#1E6B47">Download</text>
<g id="icon-check-3" transform="translate(1340.0 912.0) scale(0.7500)">
<path d="M20 6L9 17l-5-5" fill="none" stroke="#178A4C" stroke-width="3.20" stroke-linecap="round" stroke-linejoin="round"/>
</g>
<text id="22-Sep-2026-02-00" x="1368.0" y="926.0" font-family="Segoe UI" font-size="13.5" font-weight="400" fill="#16211B">22 Sep 2026 · 02:00</text>
<text id="1-21-GB" x="1694.2" y="926.0" font-family="Segoe UI" font-size="13" font-weight="400" fill="#7A857F">1.21 GB</text>
<text id="Download-3" x="1803.9" y="926.0" font-family="Segoe UI" font-size="13" font-weight="600" fill="#1E6B47">Download</text>
<text id="Restore-last-tested-02-Sep-2" x="1340.0" y="958.0" font-family="Segoe UI" font-size="12.5" font-weight="400" fill="#7A857F">Restore last tested 02 Sep 2026 · 30 days kept</text>
<g id="website-feed">
<rect x="1340.0" y="976.0" width="524.0" height="56.0" rx="10" fill="#F0F5F9"/>
<g id="icon-globe-2" transform="translate(1354.0 993.0) scale(0.9167)">
<path d="M12 2a10 10 0 1 0 0 20 10 10 0 1 0 0-20z" fill="none" stroke="#2B6CB0" stroke-width="1.96" stroke-linecap="round" stroke-linejoin="round"/>
<path d="M2 12h20" fill="none" stroke="#2B6CB0" stroke-width="1.96" stroke-linecap="round" stroke-linejoin="round"/>
<path d="M12 2a15.3 15.3 0 0 1 4 10 15.3 15.3 0 0 1-4 10 15.3 15.3 0 0 1-4-10 15.3 15.3 0 0 1 4-10z" fill="none" stroke="#2B6CB0" stroke-width="1.96" stroke-linecap="round" stroke-linejoin="round"/>
</g>
<text id="P4FP-website-feed" x="1390.0" y="1000.0" font-family="Segoe UI" font-size="13.5" font-weight="600" fill="#16211B">P4FP website feed</text>
<text id="Approved-non-sensitive-summ" x="1390.0" y="1018.0" font-family="Segoe UI" font-size="12" font-weight="400" fill="#7A857F">Approved, non-sensitive summaries only</text>
<g id="toggle">
<rect x="1812.0" y="994.0" width="36.0" height="20.0" rx="10" fill="#2B6CB0"/>
<circle cx="1838.0" cy="1004.0" r="7.5" fill="#FFFFFF"/>
</g>
</g>
</svg>
